<svg width="2780" height="1324" xmlns="http://www.w3.org/2000/svg" xmlns:xlink="http://www.w3.org/1999/xlink" xml:space="preserve" overflow="hidden"><defs><linearGradient x1="1455.5" y1="953" x2="1455.5" y2="1051" gradientUnits="userSpaceOnUse" spreadMethod="reflect" id="fill0"><stop offset="0" stop-color="#F6F8FC"/><stop offset="0.02" stop-color="#F6F8FC"/><stop offset="0.84" stop-color="#ABC0E4"/><stop offset="1" stop-color="#ABC0E4"/></linearGradient></defs><g transform="translate(-679 -498)"><path d="M2317.5 759.5C2317.5 699.301 2392.27 650.5 2484.5 650.5 2576.73 650.5 2651.5 699.301 2651.5 759.5 2651.5 819.699 2576.73 868.5 2484.5 868.5 2392.27 868.5 2317.5 819.699 2317.5 759.5Z" stroke="#D9D9D9" stroke-width="4.58333" stroke-miterlimit="8" fill="#D9D9D9" fill-rule="evenodd"/><rect x="1822.5" y="1290.5" width="301" height="143" stroke="#A9D18E" stroke-width="6.875" stroke-miterlimit="8" fill="#E2F0D9"/><path d="M2778 924.167C2778 901.431 2796.43 883 2819.17 883L2983.83 883C3006.57 883 3025 901.431 3025 924.167L3025 1283.83C3025 1306.57 3006.57 1325 2983.83 1325L2819.17 1325C2796.43 1325 2778 1306.57 2778 1283.83Z" fill="#B9E4B4" fill-rule="evenodd" fill-opacity="0.701961"/><path d="M755.5 768.5C755.5 704.987 830.492 653.5 923 653.5 1015.51 653.5 1090.5 704.987 1090.5 768.5 1090.5 832.013 1015.51 883.5 923 883.5 830.492 883.5 755.5 832.013 755.5 768.5Z" stroke="#D9D9D9" stroke-width="4.58333" stroke-miterlimit="8" fill="#D9D9D9" fill-rule="evenodd"/><rect x="835.5" y="711.5" width="34.9997" height="40.9999" stroke="#767171" stroke-width="6.875" stroke-miterlimit="8" fill="#AFABAB"/><rect x="983.5" y="709.5" width="35.0001" height="40.9999" stroke="#767171" stroke-width="6.875" stroke-miterlimit="8" fill="#AFABAB"/><text font-family="Times New Roman,Times New Roman_MSFontService,sans-serif" font-weight="400" font-size="55" transform="matrix(1 0 0 1 730.263 949)">Large base data</text><path d="M755.5 1337.5C755.5 1276.2 819.076 1226.5 897.5 1226.5 975.924 1226.5 1039.5 1276.2 1039.5 1337.5 1039.5 1398.8 975.924 1448.5 897.5 1448.5 819.076 1448.5 755.5 1398.8 755.5 1337.5Z" stroke="#FFF2CC" stroke-width="4.58333" stroke-miterlimit="8" fill="#FFF2CC" fill-rule="evenodd"/><path d="M868.5 1330 899 1301.5 929.5 1330 899 1358.5Z" stroke="#BF9000" stroke-width="6.875" stroke-miterlimit="8" fill="#FFD966" fill-rule="evenodd"/><text font-family="Times New Roman,Times New Roman_MSFontService,sans-serif" font-weight="400" font-size="55" transform="matrix(1 0 0 1 716.828 1518)">Few novel data</text><rect x="1922.5" y="807.134" width="33.366" height="31.3658" fill="#BDD7EE"/><path d="M1955.87 807.134 2018.5 744.5 2018.5 775.866 1955.87 838.5Z" fill="#98ADBF" fill-rule="evenodd"/><path d="M1922.5 807.134 1985.13 744.5 2018.5 744.5 1955.87 807.134Z" fill="#CADFF1" fill-rule="evenodd"/><path d="M1920.78 806.422 1984.42 742.781 2020.22 742.781 2020.22 776.578 1956.58 840.219 1920.78 840.219ZM1924.22 838.5 1922.5 836.781 1955.87 836.781 1954.65 837.285 2017.28 774.651 2016.78 775.866 2016.78 744.5 2018.5 746.219 1985.13 746.219 1986.35 745.715 1923.72 808.349 1924.22 807.134ZM1922.5 805.415 1955.87 805.415 1954.65 805.919 2017.28 743.285 2019.72 745.715 1956.58 808.853 1922.5 808.853ZM1957.58 807.134 1957.58 838.5 1954.15 838.5 1954.15 807.134Z" fill="#3B3838"/><rect x="1922.5" y="777.134" width="33.366" height="31.3658" fill="#C5E0B4"/><path d="M1955.87 777.134 2018.5 714.5 2018.5 745.866 1955.87 808.5Z" fill="#9EB491" fill-rule="evenodd"/><path d="M1922.5 777.134 1985.13 714.5 2018.5 714.5 1955.87 777.134Z" fill="#D0E6C3" fill-rule="evenodd"/><path d="M1920.78 776.422 1984.42 712.781 2020.22 712.781 2020.22 746.578 1956.58 810.219 1920.78 810.219ZM1924.22 808.5 1922.5 806.781 1955.87 806.781 1954.65 807.285 2017.28 744.651 2016.78 745.866 2016.78 714.5 2018.5 716.219 1985.13 716.219 1986.35 715.716 1923.72 778.349 1924.22 777.134ZM1922.5 775.415 1955.87 775.415 1954.65 775.919 2017.28 713.285 2019.72 715.716 1956.58 778.853 1922.5 778.853ZM1957.58 777.134 1957.58 808.5 1954.15 808.5 1954.15 777.134Z" fill="#3B3838"/><rect x="1922.5" y="746.134" width="33.366" height="31.3658" fill="#FFE699"/><path d="M1955.87 746.134 2018.5 683.5 2018.5 714.866 1955.87 777.5Z" fill="#CDB97B" fill-rule="evenodd"/><path d="M1922.5 746.134 1985.13 683.5 2018.5 683.5 1955.87 746.134Z" fill="#FFEBAD" fill-rule="evenodd"/><path d="M1920.78 745.422 1984.42 681.781 2020.22 681.781 2020.22 715.578 1956.58 779.219 1920.78 779.219ZM1924.22 777.5 1922.5 775.781 1955.87 775.781 1954.65 776.284 2017.28 713.65 2016.78 714.866 2016.78 683.5 2018.5 685.219 1985.13 685.219 1986.35 684.715 1923.72 747.349 1924.22 746.134ZM1922.5 744.415 1955.87 744.415 1954.65 744.919 2017.28 682.285 2019.72 684.715 1956.58 747.853 1922.5 747.853ZM1957.58 746.134 1957.58 777.5 1954.15 777.5 1954.15 746.134Z" fill="#3B3838"/><rect x="1922.5" y="716.134" width="33.366" height="31.3658" fill="#F8CBAD"/><path d="M1955.87 716.134 2018.5 653.5 2018.5 684.866 1955.87 747.5Z" fill="#C7A38B" fill-rule="evenodd"/><path d="M1922.5 716.134 1985.13 653.5 2018.5 653.5 1955.87 716.134Z" fill="#F9D5BD" fill-rule="evenodd"/><path d="M1920.78 715.422 1984.42 651.781 2020.22 651.781 2020.22 685.578 1956.58 749.219 1920.78 749.219ZM1924.22 747.5 1922.5 745.781 1955.87 745.781 1954.65 746.284 2017.28 683.65 2016.78 684.866 2016.78 653.5 2018.5 655.219 1985.13 655.219 1986.35 654.715 1923.72 717.349 1924.22 716.134ZM1922.5 714.415 1955.87 714.415 1954.65 714.919 2017.28 652.285 2019.72 654.715 1956.58 717.853 1922.5 717.853ZM1957.58 716.134 1957.58 747.5 1954.15 747.5 1954.15 716.134Z" fill="#3B3838"/><rect x="1635.5" y="1568.47" width="34.0323" height="31.0321" fill="#BDD7EE"/><path d="M1669.53 1568.47 1731.5 1506.5 1731.5 1537.53 1669.53 1599.5Z" fill="#98ADBF" fill-rule="evenodd"/><path d="M1635.5 1568.47 1697.47 1506.5 1731.5 1506.5 1669.53 1568.47Z" fill="#CADFF1" fill-rule="evenodd"/><path d="M1633.78 1567.76 1696.76 1504.78 1733.22 1504.78 1733.22 1538.24 1670.24 1601.22 1633.78 1601.22ZM1637.22 1599.5 1635.5 1597.78 1669.53 1597.78 1668.32 1598.28 1730.28 1536.32 1729.78 1537.53 1729.78 1506.5 1731.5 1508.22 1697.47 1508.22 1698.68 1507.72 1636.72 1569.68 1637.22 1568.47ZM1635.5 1566.75 1669.53 1566.75 1668.32 1567.25 1730.28 1505.28 1732.72 1507.72 1670.24 1570.19 1635.5 1570.19ZM1671.25 1568.47 1671.25 1599.5 1667.81 1599.5 1667.81 1568.47Z" fill="#3B3838"/><rect x="1635.5" y="1538.13" width="33.366" height="31.3658" fill="#C5E0B4"/><path d="M1668.87 1538.13 1731.5 1475.5 1731.5 1506.87 1668.87 1569.5Z" fill="#9EB491" fill-rule="evenodd"/><path d="M1635.5 1538.13 1698.13 1475.5 1731.5 1475.5 1668.87 1538.13Z" fill="#D0E6C3" fill-rule="evenodd"/><path d="M1633.78 1537.42 1697.42 1473.78 1733.22 1473.78 1733.22 1507.58 1669.58 1571.22 1633.78 1571.22ZM1637.22 1569.5 1635.5 1567.78 1668.87 1567.78 1667.65 1568.28 1730.28 1505.65 1729.78 1506.87 1729.78 1475.5 1731.5 1477.22 1698.13 1477.22 1699.35 1476.72 1636.72 1539.35 1637.22 1538.13ZM1635.5 1536.42 1668.87 1536.42 1667.65 1536.92 1730.28 1474.28 1732.72 1476.72 1669.58 1539.85 1635.5 1539.85ZM1670.58 1538.13 1670.58 1569.5 1667.15 1569.5 1667.15 1538.13Z" fill="#3B3838"/><rect x="1635.5" y="1507.13" width="33.366" height="31.3658" fill="#FFE699"/><path d="M1668.87 1507.13 1731.5 1444.5 1731.5 1475.87 1668.87 1538.5Z" fill="#CDB97B" fill-rule="evenodd"/><path d="M1635.5 1507.13 1698.13 1444.5 1731.5 1444.5 1668.87 1507.13Z" fill="#FFEBAD" fill-rule="evenodd"/><path d="M1633.78 1506.42 1697.42 1442.78 1733.22 1442.78 1733.22 1476.58 1669.58 1540.22 1633.78 1540.22ZM1637.22 1538.5 1635.5 1536.78 1668.87 1536.78 1667.65 1537.28 1730.28 1474.65 1729.78 1475.87 1729.78 1444.5 1731.5 1446.22 1698.13 1446.22 1699.35 1445.72 1636.72 1508.35 1637.22 1507.13ZM1635.5 1505.42 1668.87 1505.42 1667.65 1505.92 1730.28 1443.28 1732.72 1445.72 1669.58 1508.85 1635.5 1508.85ZM1670.58 1507.13 1670.58 1538.5 1667.15 1538.5 1667.15 1507.13Z" fill="#3B3838"/><rect x="1635.5" y="1476.13" width="33.366" height="31.3658" fill="#F8CBAD"/><path d="M1668.87 1476.13 1731.5 1413.5 1731.5 1444.87 1668.87 1507.5Z" fill="#C7A38B" fill-rule="evenodd"/><path d="M1635.5 1476.13 1698.13 1413.5 1731.5 1413.5 1668.87 1476.13Z" fill="#F9D5BD" fill-rule="evenodd"/><path d="M1633.78 1475.42 1697.42 1411.78 1733.22 1411.78 1733.22 1445.58 1669.58 1509.22 1633.78 1509.22ZM1637.22 1507.5 1635.5 1505.78 1668.87 1505.78 1667.65 1506.28 1730.28 1443.65 1729.78 1444.87 1729.78 1413.5 1731.5 1415.22 1698.13 1415.22 1699.35 1414.72 1636.72 1477.35 1637.22 1476.13ZM1635.5 1474.42 1668.87 1474.42 1667.65 1474.92 1730.28 1412.28 1732.72 1414.72 1669.58 1477.85 1635.5 1477.85ZM1670.58 1476.13 1670.58 1507.5 1667.15 1507.5 1667.15 1476.13Z" fill="#3B3838"/><rect x="1635.5" y="1445.13" width="33.366" height="31.366" fill="#CCCCFF"/><path d="M1668.87 1445.13 1731.5 1382.5 1731.5 1413.87 1668.87 1476.5Z" fill="#A4A4CD" fill-rule="evenodd"/><path d="M1635.5 1445.13 1698.13 1382.5 1731.5 1382.5 1668.87 1445.13Z" fill="#D6D6FF" fill-rule="evenodd"/><path d="M1633.78 1444.42 1697.42 1380.78 1733.22 1380.78 1733.22 1414.58 1669.58 1478.22 1633.78 1478.22ZM1637.22 1476.5 1635.5 1474.78 1668.87 1474.78 1667.65 1475.28 1730.28 1412.65 1729.78 1413.87 1729.78 1382.5 1731.5 1384.22 1698.13 1384.22 1699.35 1383.72 1636.72 1446.35 1637.22 1445.13ZM1635.5 1443.42 1668.87 1443.42 1667.65 1443.92 1730.28 1381.28 1732.72 1383.72 1669.58 1446.85 1635.5 1446.85ZM1670.58 1445.13 1670.58 1476.5 1667.15 1476.5 1667.15 1445.13Z" fill="#3B3838"/><rect x="1629.5" y="1227.13" width="33.3661" height="31.366" fill="#BDD7EE"/><path d="M1662.87 1227.13 1725.5 1164.5 1725.5 1195.87 1662.87 1258.5Z" fill="#98ADBF" fill-rule="evenodd"/><path d="M1629.5 1227.13 1692.13 1164.5 1725.5 1164.5 1662.87 1227.13Z" fill="#CADFF1" fill-rule="evenodd"/><path d="M1627.78 1226.42 1691.42 1162.78 1727.22 1162.78 1727.22 1196.58 1663.58 1260.22 1627.78 1260.22ZM1631.22 1258.5 1629.5 1256.78 1662.87 1256.78 1661.65 1257.28 1724.28 1194.65 1723.78 1195.87 1723.78 1164.5 1725.5 1166.22 1692.13 1166.22 1693.35 1165.72 1630.72 1228.35 1631.22 1227.13ZM1629.5 1225.42 1662.87 1225.42 1661.65 1225.92 1724.28 1163.28 1726.72 1165.72 1663.58 1228.85 1629.5 1228.85ZM1664.58 1227.13 1664.58 1258.5 1661.15 1258.5 1661.15 1227.13Z" fill="#3B3838"/><rect x="1629.5" y="1196.13" width="33.3661" height="31.3661" fill="#C5E0B4"/><path d="M1662.87 1196.13 1725.5 1133.5 1725.5 1164.87 1662.87 1227.5Z" fill="#9EB491" fill-rule="evenodd"/><path d="M1629.5 1196.13 1692.13 1133.5 1725.5 1133.5 1662.87 1196.13Z" fill="#D0E6C3" fill-rule="evenodd"/><path d="M1627.78 1195.42 1691.42 1131.78 1727.22 1131.78 1727.22 1165.58 1663.58 1229.22 1627.78 1229.22ZM1631.22 1227.5 1629.5 1225.78 1662.87 1225.78 1661.65 1226.28 1724.28 1163.65 1723.78 1164.87 1723.78 1133.5 1725.5 1135.22 1692.13 1135.22 1693.35 1134.72 1630.72 1197.35 1631.22 1196.13ZM1629.5 1194.42 1662.87 1194.42 1661.65 1194.92 1724.28 1132.28 1726.72 1134.72 1663.58 1197.85 1629.5 1197.85ZM1664.58 1196.13 1664.58 1227.5 1661.15 1227.5 1661.15 1196.13Z" fill="#3B3838"/><rect x="1629.5" y="1165.13" width="33.3661" height="31.3661" fill="#FFE699"/><path d="M1662.87 1165.13 1725.5 1102.5 1725.5 1133.87 1662.87 1196.5Z" fill="#CDB97B" fill-rule="evenodd"/><path d="M1629.5 1165.13 1692.13 1102.5 1725.5 1102.5 1662.87 1165.13Z" fill="#FFEBAD" fill-rule="evenodd"/><path d="M1627.78 1164.42 1691.42 1100.78 1727.22 1100.78 1727.22 1134.58 1663.58 1198.22 1627.78 1198.22ZM1631.22 1196.5 1629.5 1194.78 1662.87 1194.78 1661.65 1195.28 1724.28 1132.65 1723.78 1133.87 1723.78 1102.5 1725.5 1104.22 1692.13 1104.22 1693.35 1103.72 1630.72 1166.35 1631.22 1165.13ZM1629.5 1163.42 1662.87 1163.42 1661.65 1163.92 1724.28 1101.28 1726.72 1103.72 1663.58 1166.85 1629.5 1166.85ZM1664.58 1165.13 1664.58 1196.5 1661.15 1196.5 1661.15 1165.13Z" fill="#3B3838"/><rect x="1629.5" y="1134.47" width="34.0325" height="31.0322" fill="#F8CBAD"/><path d="M1663.53 1134.47 1725.5 1072.5 1725.5 1103.53 1663.53 1165.5Z" fill="#C7A38B" fill-rule="evenodd"/><path d="M1629.5 1134.47 1691.47 1072.5 1725.5 1072.5 1663.53 1134.47Z" fill="#F9D5BD" fill-rule="evenodd"/><path d="M1627.78 1133.76 1690.76 1070.78 1727.22 1070.78 1727.22 1104.24 1664.24 1167.22 1627.78 1167.22ZM1631.22 1165.5 1629.5 1163.78 1663.53 1163.78 1662.32 1164.28 1724.28 1102.32 1723.78 1103.53 1723.78 1072.5 1725.5 1074.22 1691.47 1074.22 1692.68 1073.72 1630.72 1135.68 1631.22 1134.47ZM1629.5 1132.75 1663.53 1132.75 1662.32 1133.25 1724.28 1071.28 1726.72 1073.72 1664.24 1136.19 1629.5 1136.19ZM1665.25 1134.47 1665.25 1165.5 1661.81 1165.5 1661.81 1134.47Z" fill="#3B3838"/><rect x="1629.5" y="1104.47" width="34.0325" height="31.0323" fill="#CCCCFF"/><path d="M1663.53 1104.47 1725.5 1042.5 1725.5 1073.53 1663.53 1135.5Z" fill="#A4A4CD" fill-rule="evenodd"/><path d="M1629.5 1104.47 1691.47 1042.5 1725.5 1042.5 1663.53 1104.47Z" fill="#D6D6FF" fill-rule="evenodd"/><path d="M1627.78 1135.5 1627.78 1121.75 1631.22 1121.75 1631.22 1135.5ZM1627.78 1111.44 1627.78 1103.76 1633.08 1098.46 1635.51 1100.89 1630.72 1105.68 1631.22 1104.47 1631.22 1111.44ZM1640.37 1091.17 1650.09 1081.44 1652.52 1083.87 1642.8 1093.6ZM1657.39 1074.15 1667.11 1064.43 1669.54 1066.86 1659.82 1076.58ZM1674.4 1057.14 1684.12 1047.41 1686.55 1049.84 1676.83 1059.57ZM1693.11 1040.78 1706.86 1040.78 1706.86 1044.22 1693.11 1044.22ZM1717.17 1040.78 1727.22 1040.78 1727.22 1047.92 1723.78 1047.92 1723.78 1042.5 1725.5 1044.22 1717.17 1044.22ZM1727.22 1058.24 1727.22 1071.99 1723.78 1071.99 1723.78 1058.24ZM1720.52 1080.95 1710.79 1090.67 1708.36 1088.24 1718.09 1078.52ZM1703.5 1097.96 1693.78 1107.68 1691.35 1105.25 1701.07 1095.53ZM1686.49 1114.98 1676.76 1124.7 1674.33 1122.27 1684.06 1112.55ZM1669.47 1131.99 1664.24 1137.22 1656.46 1137.22 1656.46 1133.78 1663.53 1133.78 1662.32 1134.29 1667.04 1129.56ZM1646.15 1137.22 1632.4 1137.22 1632.4 1133.78 1646.15 1133.78ZM1629.5 1102.75 1643.25 1102.75 1643.25 1106.19 1629.5 1106.19ZM1653.56 1102.75 1663.53 1102.75 1662.32 1103.25 1664.99 1100.58 1667.42 1103.01 1664.24 1106.19 1653.56 1106.19ZM1672.28 1093.29 1682 1083.56 1684.44 1086 1674.71 1095.72ZM1689.3 1076.27 1699.02 1066.55 1701.45 1068.98 1691.73 1078.7ZM1706.31 1059.26 1716.03 1049.54 1718.46 1051.97 1708.74 1061.69ZM1723.33 1042.24 1724.28 1041.28 1726.72 1043.72 1725.76 1044.67ZM1665.25 1104.47 1665.25 1118.22 1661.81 1118.22 1661.81 1104.47ZM1665.25 1128.53 1665.25 1135.5 1661.81 1135.5 1661.81 1128.53Z" fill="#3B3838"/><path d="M1093 770.25 1220.27 770.25 1220.27 775.75 1093 775.75ZM1215.69 759.25 1243.19 773 1215.69 786.75Z" fill="#3B3838"/><path d="M6.38679e-06-2.75 132.475-2.74969 132.475 2.75031-6.38679e-06 2.75ZM127.892-13.7497 155.392 0.000360892 127.892 13.7503Z" fill="#3B3838" transform="matrix(1 0 0 -1 1748 777)"/><path d="M1.9088-1.97965 17.746 13.2907 13.9284 17.25-1.9088 1.97965ZM29.6238 24.7435 45.461 40.0138 41.6434 43.9731 25.8063 28.7028ZM57.3389 51.4666 73.1761 66.737 69.3585 70.6963 53.5213 55.4259ZM85.7535 63.5838 96.006 92.57 66.6656 83.3803Z" fill="#548235" transform="matrix(1 0 0 -1 998 1258.57)"/><path d="M999.927 1414.04 1085.8 1498.41 1081.95 1502.33 996.073 1417.96ZM1090.24 1487.35 1100.22 1516.43 1070.97 1506.96Z" fill="#3B3838"/><path d="M1512 1513.25 1608.82 1513.25 1608.82 1518.75 1512 1518.75ZM1604.24 1502.25 1631.74 1516 1604.24 1529.75Z" fill="#3B3838"/><path d="M1512.06 1175.25 1534.05 1175.73 1533.93 1181.23 1511.94 1180.75ZM1550.55 1176.09 1572.55 1176.57 1572.43 1182.07 1550.43 1181.59ZM1589.04 1176.93 1606.31 1177.31 1606.19 1182.8 1588.92 1182.43ZM1601.97 1166.21 1629.16 1180.55 1601.37 1193.7Z" fill="#548235"/><path d="M0-2.75 180.839-2.75 190.073-2.47965 198.731-1.69895 206.607-0.457348 213.54 1.20421 219.333 3.24358 221.851 4.44722 224.019 5.7547 225.867 7.22097 227.362 8.90933 228.402 10.8899 228.75 12.8917 228.75 60.0832 223.25 60.0832 223.25 13.129 223.291 13.6 223.057 12.2576 223.332 13.0657 222.647 11.7621 223.023 12.3058 221.909 11.0476 222.259 11.3789 220.739 10.1727 221.028 10.3736 219.125 9.22593 219.359 9.35192 217.094 8.26943 217.367 8.38237 211.848 6.43933 212.12 6.51965 205.431 4.91649 205.643 4.95866 197.965 3.74818 198.147 3.77062 189.662 3.00562 189.828 3.01555 180.719 2.74882 180.799 2.75 0 2.75ZM239.75 55.4998 226 82.9998 212.25 55.4998Z" fill="#3B3838" transform="matrix(1 -1.22465e-16 -1.22465e-16 -1 1744 1516)"/><text font-family="Times New Roman,Times New Roman_MSFontService,sans-serif" font-weight="400" font-size="55" transform="matrix(1 0 0 1 1825.47 912)">Classifier</text><path d="M2075.32 881.536C2078.09 881.536 2080.64 881.848 2082.98 882.473L2081.44 889.536 2078.16 889.536C2078.12 887.952 2077.99 886.807 2077.77 886.098 2077.55 885.39 2077.2 884.859 2076.71 884.505 2076.22 884.15 2075.53 883.973 2074.63 883.973 2072.53 883.973 2070.64 884.812 2068.96 886.489 2067.28 888.166 2065.91 890.541 2064.85 893.614 2063.79 896.687 2063.26 899.64 2063.26 902.473 2063.26 904.598 2063.67 906.176 2064.51 907.208 2065.34 908.239 2066.59 908.755 2068.26 908.755 2070.15 908.755 2071.79 908.395 2073.18 907.676 2074.56 906.958 2076.03 905.827 2077.57 904.286L2079.48 906.192C2077.52 908.359 2075.54 909.942 2073.55 910.942 2071.56 911.942 2069.42 912.442 2067.13 912.442 2064.11 912.442 2061.82 911.546 2060.26 909.755 2058.69 907.963 2057.91 905.359 2057.91 901.942 2057.91 899.713 2058.33 897.265 2059.16 894.598 2060 891.932 2061.22 889.588 2062.82 887.567 2064.42 885.546 2066.3 884.036 2068.44 883.036 2070.59 882.036 2072.88 881.536 2075.32 881.536Z" fill-rule="evenodd"/><text fill="#000000" fill-opacity="0" font-family="Arial,Arial_MSFontService,sans-serif" font-size="30.9062" x="2057.91" y="908.579">ğ‘</text><path d="M2100.6 860.928C2099.53 860.928 2098.63 861.207 2097.91 861.766 2097.2 862.324 2096.63 863.143 2096.2 864.221 2095.78 865.3 2095.49 866.616 2095.31 868.169 2095.13 869.721 2095.05 871.485 2095.05 873.458 2095.05 875.738 2095.16 877.708 2095.38 879.368 2095.6 881.028 2095.94 882.393 2096.41 883.464 2096.88 884.535 2097.46 885.323 2098.17 885.828 2098.87 886.333 2099.71 886.585 2100.69 886.585 2101.61 886.585 2102.41 886.348 2103.1 885.874 2103.79 885.4 2104.36 884.661 2104.81 883.659 2105.26 882.657 2105.6 881.387 2105.83 879.85 2106.06 878.312 2106.18 876.495 2106.18 874.399 2106.18 872.043 2106.05 870.016 2105.8 868.318 2105.55 866.619 2105.19 865.223 2104.73 864.129 2104.27 863.036 2103.69 862.229 2103 861.708 2102.3 861.188 2101.5 860.928 2100.6 860.928ZM2100.69 858.702C2102.51 858.702 2104.07 859.042 2105.36 859.723 2106.65 860.404 2107.71 861.376 2108.53 862.638 2109.35 863.9 2109.95 865.441 2110.33 867.262 2110.71 869.083 2110.9 871.14 2110.9 873.435 2110.9 878.53 2110 882.382 2108.2 884.99 2106.39 887.599 2103.77 888.903 2100.35 888.903 2096.95 888.903 2094.43 887.672 2092.77 885.208 2091.12 882.745 2090.3 879.012 2090.3 874.009 2090.3 871.393 2090.55 869.129 2091.06 867.216 2091.58 865.304 2092.3 863.716 2093.22 862.454 2094.15 861.192 2095.24 860.251 2096.51 859.631 2097.78 859.012 2099.18 858.702 2100.69 858.702Z" fill-rule="evenodd"/><text fill="#000000" fill-opacity="0" font-family="Arial,Arial_MSFontService,sans-serif" font-size="30.2012" x="2090.3" y="885.128">0</text><text font-family="Times New Roman,Times New Roman_MSFontService,sans-serif" font-weight="400" font-size="55" transform="matrix(1 0 0 1 1518.78 1316)">Classifier</text><path d="M1765.72 1289.7C1768.1 1289.7 1770.3 1289.97 1772.3 1290.5L1770.99 1296.57 1768.17 1296.57C1768.13 1295.21 1768.02 1294.23 1767.83 1293.62 1767.64 1293.01 1767.34 1292.55 1766.92 1292.25 1766.5 1291.95 1765.9 1291.79 1765.13 1291.79 1763.32 1291.79 1761.7 1292.51 1760.26 1293.96 1758.82 1295.4 1757.64 1297.44 1756.73 1300.08 1755.81 1302.72 1755.36 1305.26 1755.36 1307.69 1755.36 1309.52 1755.72 1310.87 1756.43 1311.76 1757.15 1312.65 1758.22 1313.09 1759.65 1313.09 1761.28 1313.09 1762.69 1312.78 1763.88 1312.16 1765.07 1311.55 1766.33 1310.57 1767.66 1309.25L1769.3 1310.89C1767.61 1312.75 1765.92 1314.11 1764.21 1314.97 1762.5 1315.83 1760.66 1316.26 1758.69 1316.26 1756.09 1316.26 1754.12 1315.49 1752.78 1313.95 1751.44 1312.41 1750.76 1310.17 1750.76 1307.24 1750.76 1305.32 1751.12 1303.22 1751.84 1300.92 1752.56 1298.63 1753.6 1296.62 1754.98 1294.88 1756.36 1293.15 1757.97 1291.85 1759.82 1290.99 1761.66 1290.13 1763.63 1289.7 1765.72 1289.7Z" fill-rule="evenodd"/><text fill="#000000" fill-opacity="0" font-family="Arial,Arial_MSFontService,sans-serif" font-size="26.5601" x="1750.76" y="1312.94">ğ‘</text><path d="M1763.37 1277.08 1766.97 1277.08 1772.74 1285.54 1770.86 1287.07 1765.17 1280.54 1764.87 1280.54 1759.18 1287.07 1757.35 1285.54Z" fill-rule="evenodd"/><text fill="#000000" fill-opacity="0" font-family="Arial,Arial_MSFontService,sans-serif" font-size="9.99023" x="1757.35" y="1285.82">Æ¸</text><path d="M1784.23 1271.17 1787.28 1271.17 1786.17 1276.13 1792.81 1276.13 1792.36 1278.3 1785.74 1278.3 1783.74 1286.48C1783.61 1287.03 1783.51 1287.52 1783.42 1287.95 1783.34 1288.39 1783.27 1288.78 1783.22 1289.14 1783.17 1289.49 1783.13 1289.81 1783.11 1290.09 1783.09 1290.38 1783.08 1290.65 1783.08 1290.89 1783.08 1291.67 1783.24 1292.29 1783.57 1292.73 1783.89 1293.17 1784.43 1293.39 1785.17 1293.39 1785.8 1293.39 1786.46 1293.16 1787.16 1292.7 1787.87 1292.24 1788.67 1291.51 1789.57 1290.52L1790.91 1291.89C1790.25 1292.63 1789.62 1293.26 1789.02 1293.78 1788.42 1294.3 1787.83 1294.73 1787.26 1295.06 1786.69 1295.4 1786.12 1295.64 1785.56 1295.79 1785 1295.94 1784.43 1296.01 1783.84 1296.01 1782.29 1296.01 1781.14 1295.65 1780.38 1294.92 1779.61 1294.19 1779.23 1293.11 1779.23 1291.69 1779.23 1291.21 1779.27 1290.68 1779.34 1290.1 1779.41 1289.52 1779.51 1288.96 1779.64 1288.41L1781.97 1278.3 1778.61 1278.3 1779 1276.79C1779.78 1276.79 1780.39 1276.72 1780.82 1276.57 1781.26 1276.42 1781.63 1276.21 1781.93 1275.95 1782.12 1275.77 1782.31 1275.54 1782.49 1275.28 1782.68 1275.01 1782.86 1274.69 1783.04 1274.31 1783.22 1273.93 1783.41 1273.49 1783.6 1272.97 1783.79 1272.46 1784 1271.86 1784.23 1271.17Z" fill-rule="evenodd"/><text fill="#000000" fill-opacity="0" font-family="Arial,Arial_MSFontService,sans-serif" font-size="24.8438" x="1778.61" y="1292.9">ğ‘¡</text><rect x="906.5" y="808.5" width="35.0001" height="40.9999" stroke="#767171" stroke-width="6.875" stroke-miterlimit="8" fill="#AFABAB"/><text font-family="Times New Roman,Times New Roman_MSFontService,sans-serif" font-weight="400" font-size="55" transform="matrix(1 0 0 1 2280.19 937)">Moderate base data</text><path d="M2342.5 1412.5C2342.5 1351.2 2406.08 1301.5 2484.5 1301.5 2562.92 1301.5 2626.5 1351.2 2626.5 1412.5 2626.5 1473.8 2562.92 1523.5 2484.5 1523.5 2406.08 1523.5 2342.5 1473.8 2342.5 1412.5Z" stroke="#FFF2CC" stroke-width="4.58333" stroke-miterlimit="8" fill="#FFF2CC" fill-rule="evenodd"/><path d="M2456.5 1407 2487 1378.5 2517.5 1407 2487 1435.5Z" stroke="#BF9000" stroke-width="6.875" stroke-miterlimit="8" fill="#FFD966" fill-rule="evenodd"/><text font-family="Times New Roman,Times New Roman_MSFontService,sans-serif" font-weight="400" font-size="55" transform="matrix(1 0 0 1 2790.83 1113)">iFSS</text><text font-family="Times New Roman,Times New Roman_MSFontService,sans-serif" font-weight="400" font-size="55" transform="matrix(1 0 0 1 2897.39 1113)">-</text><text font-family="Times New Roman,Times New Roman_MSFontService,sans-serif" font-weight="400" font-size="55" transform="matrix(1 0 0 1 2915.72 1113)">Diff</text><path d="M2653.12 757.251 2757.69 884.122 2753.45 887.62 2648.88 760.749ZM2763.27 873.589 2770.15 903.555 2742.04 891.08Z" fill="#3B3838"/><path d="M1.6787-2.17818 127.881 95.0852 124.524 99.4416-1.6787 2.17818ZM130.966 83.5747 144.354 111.253 114.179 105.356Z" fill="#3B3838" transform="matrix(1 0 0 -1 2626 1412.25)"/><rect x="3170.5" y="857.397" width="204.103" height="26.1033" fill="#BDD7EE"/><path d="M3374.6 857.397 3393.5 838.5 3393.5 864.603 3374.6 883.5Z" fill="#98ADBF" fill-rule="evenodd"/><path d="M3170.5 857.397 3189.4 838.5 3393.5 838.5 3374.6 857.397Z" fill="#CADFF1" fill-rule="evenodd"/><path d="M3168.78 856.685 3188.68 836.781 3395.22 836.781 3395.22 865.315 3375.32 885.219 3168.78 885.219ZM3172.22 883.5 3170.5 881.781 3374.6 881.781 3373.39 882.285 3392.28 863.388 3391.78 864.603 3391.78 838.5 3393.5 840.219 3189.4 840.219 3190.61 839.715 3171.72 858.612 3172.22 857.397ZM3170.5 855.678 3374.6 855.678 3373.39 856.181 3392.28 837.285 3394.72 839.715 3375.32 859.115 3170.5 859.115ZM3376.32 857.397 3376.32 883.5 3372.88 883.5 3372.88 857.397Z" fill="#3B3838"/><rect x="3170.5" y="795.397" width="204.103" height="26.1033" fill="#C5E0B4"/><path d="M3374.6 795.397 3393.5 776.5 3393.5 802.603 3374.6 821.5Z" fill="#9EB491" fill-rule="evenodd"/><path d="M3170.5 795.397 3189.4 776.5 3393.5 776.5 3374.6 795.397Z" fill="#D0E6C3" fill-rule="evenodd"/><path d="M3168.78 794.685 3188.68 774.781 3395.22 774.781 3395.22 803.315 3375.32 823.219 3168.78 823.219ZM3172.22 821.5 3170.5 819.781 3374.6 819.781 3373.39 820.285 3392.28 801.388 3391.78 802.603 3391.78 776.5 3393.5 778.219 3189.4 778.219 3190.61 777.715 3171.72 796.612 3172.22 795.397ZM3170.5 793.678 3374.6 793.678 3373.39 794.181 3392.28 775.285 3394.72 777.715 3375.32 797.116 3170.5 797.116ZM3376.32 795.397 3376.32 821.5 3372.88 821.5 3372.88 795.397Z" fill="#3B3838"/><rect x="3171.5" y="734.397" width="204.103" height="26.1033" fill="#FFE699"/><path d="M3375.6 734.397 3394.5 715.5 3394.5 741.603 3375.6 760.5Z" fill="#CDB97B" fill-rule="evenodd"/><path d="M3171.5 734.397 3190.4 715.5 3394.5 715.5 3375.6 734.397Z" fill="#FFEBAD" fill-rule="evenodd"/><path d="M3169.78 733.685 3189.68 713.781 3396.22 713.781 3396.22 742.315 3376.32 762.219 3169.78 762.219ZM3173.22 760.5 3171.5 758.781 3375.6 758.781 3374.39 759.284 3393.28 740.388 3392.78 741.603 3392.78 715.5 3394.5 717.219 3190.4 717.219 3191.61 716.715 3172.72 735.612 3173.22 734.397ZM3171.5 732.678 3375.6 732.678 3374.39 733.181 3393.28 714.284 3395.72 716.715 3376.32 736.115 3171.5 736.115ZM3377.32 734.397 3377.32 760.5 3373.88 760.5 3373.88 734.397Z" fill="#3B3838"/><rect x="3171.5" y="672.397" width="204.103" height="26.1033" fill="#F8CBAD"/><path d="M3375.6 672.397 3394.5 653.5 3394.5 679.603 3375.6 698.5Z" fill="#C7A38B" fill-rule="evenodd"/><path d="M3171.5 672.397 3190.4 653.5 3394.5 653.5 3375.6 672.397Z" fill="#F9D5BD" fill-rule="evenodd"/><path d="M3169.78 671.685 3189.68 651.781 3396.22 651.781 3396.22 680.315 3376.32 700.219 3169.78 700.219ZM3173.22 698.5 3171.5 696.781 3375.6 696.781 3374.39 697.285 3393.28 678.388 3392.78 679.603 3392.78 653.5 3394.5 655.219 3190.4 655.219 3191.61 654.715 3172.72 673.612 3173.22 672.397ZM3171.5 670.678 3375.6 670.678 3374.39 671.181 3393.28 652.285 3395.72 654.715 3376.32 674.115 3171.5 674.115ZM3377.32 672.397 3377.32 698.5 3373.88 698.5 3373.88 672.397Z" fill="#3B3838"/><text font-family="Times New Roman,Times New Roman_MSFontService,sans-serif" font-weight="400" font-size="55" transform="matrix(1 0 0 1 3172 959)">Base class </text><text font-family="Times New Roman,Times New Roman_MSFontService,sans-serif" font-weight="400" font-size="55" transform="matrix(1 0 0 1 3152.79 1025)">embeddings</text><rect x="3170.5" y="1422.4" width="204.103" height="26.1033" fill="#CCCCFF"/><path d="M3374.6 1422.4 3393.5 1403.5 3393.5 1429.6 3374.6 1448.5Z" fill="#A4A4CD" fill-rule="evenodd"/><path d="M3170.5 1422.4 3189.4 1403.5 3393.5 1403.5 3374.6 1422.4Z" fill="#D6D6FF" fill-rule="evenodd"/><path d="M3168.78 1421.68 3188.68 1401.78 3395.22 1401.78 3395.22 1430.32 3375.32 1450.22 3168.78 1450.22ZM3172.22 1448.5 3170.5 1446.78 3374.6 1446.78 3373.39 1447.28 3392.28 1428.39 3391.78 1429.6 3391.78 1403.5 3393.5 1405.22 3189.4 1405.22 3190.61 1404.72 3171.72 1423.61 3172.22 1422.4ZM3170.5 1420.68 3374.6 1420.68 3373.39 1421.18 3392.28 1402.28 3394.72 1404.72 3375.32 1424.12 3170.5 1424.12ZM3376.32 1422.4 3376.32 1448.5 3372.88 1448.5 3372.88 1422.4Z" fill="#3B3838"/><text font-family="Times New Roman,Times New Roman_MSFontService,sans-serif" font-weight="400" font-size="55" transform="matrix(1 0 0 1 3153.97 1536)">Novel class </text><text font-family="Times New Roman,Times New Roman_MSFontService,sans-serif" font-weight="400" font-size="55" transform="matrix(1 0 0 1 3159.13 1602)">embedding</text><path d="M2.05265-1.83007 109.576 118.771 105.471 122.431-2.05265 1.83007ZM114.737 108.03 122.774 137.706 94.2103 126.33Z" fill="#3B3838" transform="matrix(1 0 0 -1 3028 895.706)"/><path d="M3029.92 1307.03 3134.95 1409.3 3131.11 1413.24 3026.08 1310.97ZM3139.34 1398.22 3149.45 1427.26 3120.15 1417.92Z" fill="#3B3838"/><text font-family="Times New Roman,Times New Roman_MSFontService,sans-serif" font-weight="400" font-size="64" transform="matrix(1 0 0 1 1210.2 1768)">(a) Previous method</text><path d="M1246 743C1246 734.164 1253.16 727 1262 727L1737 727C1745.84 727 1753 734.164 1753 743L1753 807C1753 815.836 1745.84 823 1737 823L1262 823C1253.16 823 1246 815.836 1246 807Z" fill="#FBE5D6" fill-rule="evenodd"/><text font-family="Times New Roman,Times New Roman_MSFontService,sans-serif" font-weight="400" font-size="55" transform="matrix(1 0 0 1 1268.79 788)">Feature extractor</text><path d="M1701.36 752.405C1703.12 752.405 1704.63 752.548 1705.9 752.834L1704.86 757.4 1702.49 757.4C1702.24 756.379 1701.91 755.645 1701.51 755.198 1701.11 754.75 1700.51 754.526 1699.73 754.526 1698.71 754.526 1697.84 754.808 1697.13 755.372 1696.43 755.936 1695.82 756.773 1695.32 757.883 1694.82 758.993 1694.35 760.488 1693.93 762.368L1693.25 765.295 1700.16 765.295 1699.56 768.008 1692.64 768.008 1687.64 791.426C1686.82 795.311 1685.56 798.207 1683.85 800.113 1682.15 802.02 1680.01 802.973 1677.44 802.973 1676.68 802.973 1676.09 802.929 1675.66 802.839L1676.12 800.476C1676.3 800.53 1676.72 800.556 1677.38 800.556 1678.19 800.556 1678.88 800.351 1679.45 799.939 1680.02 799.527 1680.56 798.811 1681.05 797.79 1681.54 796.77 1681.99 795.355 1682.4 793.547L1688.18 768.008 1683.64 768.008 1684.04 766.155C1685.24 766.083 1686.11 765.984 1686.63 765.859 1687.16 765.734 1687.57 765.546 1687.87 765.295 1688.16 765.045 1688.42 764.718 1688.62 764.315 1688.83 763.912 1689.09 763.174 1689.41 762.099 1690.36 758.877 1691.83 756.455 1693.8 754.835 1695.78 753.215 1698.3 752.405 1701.36 752.405Z" fill-rule="evenodd"/><text fill="#000000" fill-opacity="0" font-family="Arial,Arial_MSFontService,sans-serif" font-size="50.5688" x="1675.66" y="796.652">ğ‘“</text><path d="M1721.36 747.427C1720.45 747.427 1719.69 747.664 1719.07 748.14 1718.46 748.615 1717.98 749.312 1717.62 750.23 1717.26 751.148 1717.01 752.267 1716.86 753.589 1716.71 754.911 1716.63 756.411 1716.63 758.091 1716.63 760.031 1716.73 761.707 1716.92 763.12 1717.1 764.533 1717.4 765.695 1717.79 766.607 1718.19 767.518 1718.69 768.189 1719.29 768.618 1719.89 769.048 1720.6 769.263 1721.44 769.263 1722.22 769.263 1722.9 769.061 1723.49 768.657 1724.07 768.254 1724.56 767.625 1724.94 766.773 1725.33 765.92 1725.62 764.839 1725.81 763.53 1726.01 762.222 1726.1 760.676 1726.1 758.892 1726.1 756.887 1726 755.161 1725.78 753.716 1725.57 752.271 1725.27 751.082 1724.87 750.151 1724.48 749.221 1723.99 748.534 1723.4 748.091 1722.81 747.648 1722.13 747.427 1721.36 747.427ZM1721.44 745.532C1722.99 745.532 1724.31 745.822 1725.41 746.401 1726.51 746.981 1727.41 747.808 1728.11 748.882 1728.8 749.956 1729.31 751.268 1729.64 752.818 1729.97 754.367 1730.13 756.118 1730.13 758.071 1730.13 762.407 1729.36 765.685 1727.82 767.905 1726.29 770.125 1724.06 771.235 1721.14 771.235 1718.25 771.235 1716.1 770.187 1714.7 768.091 1713.29 765.995 1712.59 762.818 1712.59 758.56 1712.59 756.333 1712.81 754.406 1713.24 752.778 1713.68 751.151 1714.29 749.8 1715.08 748.726 1715.87 747.651 1716.8 746.851 1717.88 746.323 1718.96 745.796 1720.15 745.532 1721.44 745.532Z" fill-rule="evenodd"/><text fill="#000000" fill-opacity="0" font-family="Arial,Arial_MSFontService,sans-serif" font-size="25.7031" x="1712.59" y="768.023">0</text><path d="M1103 1129.17C1103 1115.82 1113.82 1105 1127.17 1105L1487.83 1105C1501.18 1105 1512 1115.82 1512 1129.17L1512 1225.83C1512 1239.18 1501.18 1250 1487.83 1250L1127.17 1250C1113.82 1250 1103 1239.18 1103 1225.83Z" fill="#F8CBAD" fill-rule="evenodd"/><text font-family="Times New Roman,Times New Roman_MSFontService,sans-serif" font-weight="400" font-size="55" transform="matrix(1 0 0 1 1118.4 1163)">Feature extractor</text><path d="M1292.37 1189.48C1294.12 1189.48 1295.63 1189.63 1296.91 1189.91L1295.86 1194.48 1293.49 1194.48C1293.24 1193.46 1292.92 1192.73 1292.51 1192.28 1292.11 1191.83 1291.52 1191.61 1290.73 1191.61 1289.71 1191.61 1288.84 1191.89 1288.14 1192.45 1287.43 1193.02 1286.83 1193.85 1286.32 1194.96 1285.82 1196.07 1285.36 1197.57 1284.93 1199.45L1284.26 1202.38 1291.16 1202.38 1290.57 1205.09 1283.64 1205.09 1278.64 1228.51C1277.82 1232.39 1276.56 1235.29 1274.86 1237.19 1273.16 1239.1 1271.02 1240.05 1268.44 1240.05 1267.69 1240.05 1267.1 1240.01 1266.67 1239.92L1267.12 1237.56C1267.3 1237.61 1267.72 1237.64 1268.38 1237.64 1269.19 1237.64 1269.88 1237.43 1270.45 1237.02 1271.03 1236.61 1271.56 1235.89 1272.05 1234.87 1272.54 1233.85 1272.99 1232.44 1273.41 1230.63L1279.18 1205.09 1274.64 1205.09 1275.04 1203.23C1276.24 1203.16 1277.11 1203.06 1277.64 1202.94 1278.16 1202.81 1278.58 1202.63 1278.87 1202.38 1279.17 1202.12 1279.42 1201.8 1279.62 1201.4 1279.83 1200.99 1280.09 1200.25 1280.42 1199.18 1281.36 1195.96 1282.83 1193.54 1284.81 1191.92 1286.79 1190.3 1289.3 1189.48 1292.37 1189.48Z" fill-rule="evenodd"/><text fill="#000000" fill-opacity="0" font-family="Arial,Arial_MSFontService,sans-serif" font-size="50.5688" x="1266.67" y="1233.73">ğ‘“</text><path d="M1309.18 1183.41 1312.22 1183.41 1311.11 1188.37 1317.75 1188.37 1317.3 1190.54 1310.68 1190.54 1308.69 1198.73C1308.56 1199.27 1308.45 1199.76 1308.37 1200.2 1308.28 1200.64 1308.21 1201.03 1308.16 1201.38 1308.11 1201.73 1308.07 1202.05 1308.05 1202.34 1308.03 1202.63 1308.03 1202.89 1308.03 1203.14 1308.03 1203.92 1308.19 1204.53 1308.51 1204.98 1308.84 1205.42 1309.37 1205.64 1310.11 1205.64 1310.74 1205.64 1311.4 1205.41 1312.11 1204.95 1312.81 1204.48 1313.61 1203.76 1314.51 1202.77L1315.86 1204.14C1315.19 1204.88 1314.56 1205.51 1313.96 1206.03 1313.36 1206.55 1312.78 1206.98 1312.2 1207.31 1311.63 1207.64 1311.07 1207.88 1310.51 1208.03 1309.95 1208.18 1309.37 1208.26 1308.79 1208.26 1307.24 1208.26 1306.08 1207.89 1305.32 1207.16 1304.56 1206.43 1304.18 1205.36 1304.18 1203.94 1304.18 1203.46 1304.21 1202.93 1304.28 1202.35 1304.36 1201.77 1304.46 1201.21 1304.59 1200.66L1306.91 1190.54 1303.55 1190.54 1303.94 1189.04C1304.72 1189.04 1305.33 1188.96 1305.77 1188.81 1306.21 1188.66 1306.57 1188.46 1306.87 1188.2 1307.07 1188.02 1307.26 1187.79 1307.44 1187.52 1307.62 1187.26 1307.8 1186.94 1307.99 1186.56 1308.17 1186.18 1308.35 1185.73 1308.54 1185.22 1308.73 1184.71 1308.94 1184.1 1309.18 1183.41Z" fill-rule="evenodd"/><text fill="#000000" fill-opacity="0" font-family="Arial,Arial_MSFontService,sans-serif" font-size="24.8438" x="1303.55" y="1205.15">ğ‘¡</text><path d="M1322.92 1194.98 1345.42 1194.98 1345.42 1197.96 1322.92 1197.96Z" fill-rule="evenodd"/><text fill="#000000" fill-opacity="0" font-family="Arial,Arial_MSFontService,sans-serif" font-size="2.98828" x="1322.92" y="1197.59">âˆ’</text><path d="M1362.02 1182.75 1363.21 1182.75C1363.18 1183.47 1363.16 1184.11 1363.15 1184.67 1363.14 1185.24 1363.13 1185.79 1363.12 1186.32 1363.12 1186.86 1363.11 1187.38 1363.11 1187.91L1363.11 1202.75C1363.11 1203.15 1363.13 1203.5 1363.15 1203.79 1363.18 1204.09 1363.22 1204.33 1363.28 1204.54 1363.34 1204.74 1363.42 1204.91 1363.51 1205.05 1363.61 1205.2 1363.72 1205.32 1363.85 1205.43 1364.01 1205.58 1364.22 1205.7 1364.48 1205.79 1364.74 1205.87 1365.07 1205.94 1365.48 1206 1365.88 1206.06 1366.36 1206.11 1366.93 1206.14 1367.5 1206.17 1368.18 1206.19 1368.97 1206.21L1368.97 1207.91 1353.48 1207.91 1353.48 1206.21C1354.25 1206.18 1354.9 1206.15 1355.44 1206.12 1355.97 1206.09 1356.43 1206.04 1356.8 1205.98 1357.18 1205.92 1357.48 1205.86 1357.71 1205.79 1357.94 1205.71 1358.14 1205.63 1358.31 1205.52 1358.49 1205.41 1358.65 1205.28 1358.78 1205.14 1358.91 1205.01 1359.01 1204.83 1359.09 1204.62 1359.17 1204.42 1359.23 1204.16 1359.27 1203.86 1359.32 1203.56 1359.34 1203.19 1359.34 1202.75L1359.34 1188.75C1359.34 1188.24 1359.25 1187.88 1359.05 1187.67 1358.85 1187.46 1358.57 1187.36 1358.21 1187.36 1357.81 1187.36 1357.21 1187.57 1356.41 1187.98 1355.62 1188.4 1354.59 1189.02 1353.33 1189.84 1353.16 1189.54 1353 1189.24 1352.86 1188.94 1352.72 1188.64 1352.57 1188.34 1352.41 1188.02 1354.02 1187.14 1355.62 1186.26 1357.2 1185.38 1358.79 1184.5 1360.39 1183.62 1362.02 1182.75Z" fill-rule="evenodd"/><text fill="#000000" fill-opacity="0" font-family="Arial,Arial_MSFontService,sans-serif" font-size="25.1562" x="1352.41" y="1204.76">1</text><path d="M1103 1459.17C1103 1445.82 1113.82 1435 1127.17 1435L1487.83 1435C1501.18 1435 1512 1445.82 1512 1459.17L1512 1555.83C1512 1569.18 1501.18 1580 1487.83 1580L1127.17 1580C1113.82 1580 1103 1569.18 1103 1555.83Z" fill="#F4B183" fill-rule="evenodd" fill-opacity="0.85098"/><text font-family="Times New Roman,Times New Roman_MSFontService,sans-serif" font-weight="400" font-size="55" transform="matrix(1 0 0 1 1115.93 1496)">Feature extractor</text><path d="M1317.27 1522.95C1319.02 1522.95 1320.53 1523.09 1321.8 1523.38L1320.76 1527.95 1318.39 1527.95C1318.14 1526.92 1317.82 1526.19 1317.41 1525.74 1317.01 1525.3 1316.42 1525.07 1315.63 1525.07 1314.61 1525.07 1313.74 1525.35 1313.04 1525.92 1312.33 1526.48 1311.73 1527.32 1311.22 1528.43 1310.72 1529.54 1310.26 1531.03 1309.83 1532.91L1309.16 1535.84 1316.06 1535.84 1315.47 1538.55 1308.54 1538.55 1303.54 1561.97C1302.72 1565.86 1301.46 1568.75 1299.76 1570.66 1298.06 1572.57 1295.92 1573.52 1293.34 1573.52 1292.59 1573.52 1292 1573.47 1291.57 1573.38L1292.02 1571.02C1292.2 1571.08 1292.62 1571.1 1293.28 1571.1 1294.09 1571.1 1294.78 1570.9 1295.35 1570.48 1295.93 1570.07 1296.46 1569.36 1296.95 1568.34 1297.44 1567.32 1297.89 1565.9 1298.31 1564.09L1304.08 1538.55 1299.54 1538.55 1299.94 1536.7C1301.14 1536.63 1302.01 1536.53 1302.54 1536.4 1303.06 1536.28 1303.48 1536.09 1303.77 1535.84 1304.07 1535.59 1304.32 1535.26 1304.52 1534.86 1304.73 1534.46 1304.99 1533.72 1305.32 1532.65 1306.26 1529.42 1307.73 1527 1309.71 1525.38 1311.68 1523.76 1314.2 1522.95 1317.27 1522.95Z" fill-rule="evenodd"/><text fill="#000000" fill-opacity="0" font-family="Arial,Arial_MSFontService,sans-serif" font-size="50.5688" x="1291.57" y="1567.2">ğ‘“</text><path d="M1334.08 1516.88 1337.12 1516.88 1336.01 1521.84 1342.65 1521.84 1342.2 1524.01 1335.58 1524.01 1333.59 1532.19C1333.46 1532.74 1333.35 1533.23 1333.27 1533.67 1333.18 1534.1 1333.11 1534.5 1333.06 1534.85 1333.01 1535.2 1332.97 1535.52 1332.95 1535.8 1332.93 1536.09 1332.93 1536.36 1332.93 1536.61 1332.93 1537.39 1333.09 1538 1333.41 1538.44 1333.74 1538.88 1334.27 1539.11 1335.01 1539.11 1335.64 1539.11 1336.3 1538.87 1337.01 1538.41 1337.71 1537.95 1338.51 1537.22 1339.41 1536.23L1340.76 1537.6C1340.09 1538.34 1339.46 1538.98 1338.86 1539.5 1338.26 1540.02 1337.68 1540.44 1337.1 1540.78 1336.53 1541.11 1335.97 1541.35 1335.41 1541.5 1334.85 1541.65 1334.27 1541.72 1333.69 1541.72 1332.14 1541.72 1330.98 1541.36 1330.22 1540.63 1329.46 1539.9 1329.08 1538.83 1329.08 1537.41 1329.08 1536.92 1329.11 1536.39 1329.18 1535.81 1329.26 1535.23 1329.36 1534.67 1329.49 1534.12L1331.81 1524.01 1328.45 1524.01 1328.84 1522.5C1329.62 1522.5 1330.23 1522.43 1330.67 1522.28 1331.11 1522.13 1331.47 1521.92 1331.77 1521.66 1331.97 1521.48 1332.16 1521.26 1332.34 1520.99 1332.52 1520.72 1332.7 1520.4 1332.89 1520.02 1333.07 1519.65 1333.25 1519.2 1333.44 1518.69 1333.63 1518.17 1333.84 1517.57 1334.08 1516.88Z" fill-rule="evenodd"/><text fill="#000000" fill-opacity="0" font-family="Arial,Arial_MSFontService,sans-serif" font-size="24.8438" x="1328.45" y="1538.62">ğ‘¡</text><text font-family="Times New Roman,Times New Roman_MSFontService,sans-serif" font-weight="400" font-size="55" transform="matrix(1 0 0 1 1520.58 1651)">Classifier</text><path d="M1767.53 1624.62C1769.91 1624.62 1772.1 1624.89 1774.11 1625.42L1772.79 1631.49 1769.97 1631.49C1769.94 1630.13 1769.83 1629.15 1769.64 1628.54 1769.45 1627.93 1769.15 1627.47 1768.72 1627.17 1768.3 1626.86 1767.71 1626.71 1766.94 1626.71 1765.13 1626.71 1763.51 1627.43 1762.06 1628.87 1760.62 1630.32 1759.45 1632.36 1758.53 1635 1757.62 1637.64 1757.16 1640.18 1757.16 1642.61 1757.16 1644.44 1757.52 1645.79 1758.24 1646.68 1758.95 1647.57 1760.03 1648.01 1761.46 1648.01 1763.09 1648.01 1764.5 1647.7 1765.69 1647.08 1766.88 1646.46 1768.14 1645.49 1769.46 1644.17L1771.1 1645.81C1769.42 1647.67 1767.72 1649.03 1766.01 1649.89 1764.3 1650.75 1762.46 1651.18 1760.49 1651.18 1757.9 1651.18 1755.93 1650.41 1754.59 1648.87 1753.24 1647.33 1752.57 1645.09 1752.57 1642.15 1752.57 1640.24 1752.93 1638.13 1753.65 1635.84 1754.36 1633.55 1755.41 1631.54 1756.79 1629.8 1758.17 1628.06 1759.78 1626.77 1761.62 1625.91 1763.47 1625.05 1765.44 1624.62 1767.53 1624.62Z" fill-rule="evenodd"/><text fill="#000000" fill-opacity="0" font-family="Arial,Arial_MSFontService,sans-serif" font-size="26.5601" x="1752.57" y="1647.86">ğ‘</text><path d="M1786.04 1606.09 1789.09 1606.09 1787.97 1611.05 1794.61 1611.05 1794.16 1613.21 1787.54 1613.21 1785.55 1621.4C1785.42 1621.94 1785.31 1622.44 1785.23 1622.87 1785.14 1623.31 1785.08 1623.7 1785.02 1624.05 1784.97 1624.41 1784.94 1624.72 1784.92 1625.01 1784.9 1625.3 1784.89 1625.56 1784.89 1625.81 1784.89 1626.59 1785.05 1627.2 1785.38 1627.65 1785.7 1628.09 1786.23 1628.31 1786.98 1628.31 1787.6 1628.31 1788.27 1628.08 1788.97 1627.62 1789.67 1627.16 1790.47 1626.43 1791.37 1625.44L1792.72 1626.81C1792.06 1627.55 1791.42 1628.18 1790.82 1628.7 1790.23 1629.22 1789.64 1629.65 1789.07 1629.98 1788.49 1630.31 1787.93 1630.55 1787.37 1630.7 1786.81 1630.85 1786.23 1630.93 1785.65 1630.93 1784.1 1630.93 1782.94 1630.56 1782.18 1629.84 1781.42 1629.11 1781.04 1628.03 1781.04 1626.61 1781.04 1626.13 1781.08 1625.6 1781.15 1625.02 1781.22 1624.44 1781.32 1623.88 1781.45 1623.33L1783.77 1613.21 1780.41 1613.21 1780.81 1611.71C1781.59 1611.71 1782.2 1611.64 1782.63 1611.49 1783.07 1611.34 1783.44 1611.13 1783.73 1610.87 1783.93 1610.69 1784.12 1610.46 1784.3 1610.2 1784.48 1609.93 1784.67 1609.61 1784.85 1609.23 1785.03 1608.85 1785.22 1608.41 1785.4 1607.89 1785.59 1607.38 1785.81 1606.78 1786.04 1606.09Z" fill-rule="evenodd"/><text fill="#000000" fill-opacity="0" font-family="Arial,Arial_MSFontService,sans-serif" font-size="24.8438" x="1780.41" y="1627.82">ğ‘¡</text><text font-family="Times New Roman,Times New Roman_MSFontService,sans-serif" font-weight="400" font-size="55" transform="matrix(1 0 0 1 1850.68 1350)">Knowledge </text><text font-family="Times New Roman,Times New Roman_MSFontService,sans-serif" font-weight="400" font-size="55" transform="matrix(1 0 0 1 1859.27 1416)">distillation</text><path d="M1735 1173.25 1757 1173.25 1757 1178.75 1735 1178.75ZM1773.5 1173.25 1795.5 1173.25 1795.5 1178.75 1773.5 1178.75ZM1812 1173.25 1834 1173.25 1834 1178.75 1812 1178.75ZM1850.5 1173.25 1872.5 1173.25 1872.5 1178.75 1850.5 1178.75ZM1889 1173.25 1911 1173.25 1911 1178.75 1889 1178.75ZM1927.6 1173.42 1932.68 1173.61 1941.73 1174.66 1949.82 1176.3 1948.73 1181.69 1940.75 1180.07 1940.98 1180.11 1932.15 1179.09 1932.37 1179.1 1927.39 1178.92ZM1966.13 1183.11 1968.14 1184.67 1970.02 1186.58 1971.48 1188.7 1972.44 1191.05 1972.75 1193.37 1972.75 1205.21 1967.25 1205.21 1967.25 1193.56 1967.27 1193.93 1967.03 1192.13 1967.21 1192.8 1966.5 1191.06 1966.78 1191.58 1965.62 1189.9 1965.92 1190.26 1964.34 1188.65 1964.62 1188.9 1962.76 1187.45ZM1972.75 1221.71 1972.75 1243.71 1967.25 1243.71 1967.25 1221.71ZM1972.75 1260.21 1972.75 1264.08 1967.25 1264.08 1967.25 1260.21ZM1983.75 1259.5 1970 1287 1956.25 1259.5Z" fill="#548235"/><text font-family="Times New Roman,Times New Roman_MSFontService,sans-serif" font-weight="400" font-size="55" transform="matrix(1 0 0 1 2321.55 1600)">Few novel data</text><text font-family="Times New Roman,Times New Roman_MSFontService,sans-serif" font-weight="400" font-size="64" transform="matrix(1 0 0 1 2671.21 1758)">(b) iFSS</text><text font-family="Times New Roman,Times New Roman_MSFontService,sans-serif" font-weight="400" font-size="64" transform="matrix(1 0 0 1 2886.05 1758)">-</text><text font-family="Times New Roman,Times New Roman_MSFontService,sans-serif" font-weight="400" font-size="64" transform="matrix(1 0 0 1 2907.25 1758)">Diff (</text><text font-family="Times New Roman,Times New Roman_MSFontService,sans-serif" font-weight="700" font-size="64" transform="matrix(1 0 0 1 3049.88 1758)">ours</text><text font-family="Times New Roman,Times New Roman_MSFontService,sans-serif" font-weight="400" font-size="64" transform="matrix(1 0 0 1 3171.34 1758)">)</text><rect x="2383.5" y="1092.4" width="204.103" height="26.1033" fill="#FCE5E5"/><path d="M2587.6 1092.4 2606.5 1073.5 2606.5 1099.6 2587.6 1118.5Z" fill="#CBB8B8" fill-rule="evenodd"/><path d="M2383.5 1092.4 2402.4 1073.5 2606.5 1073.5 2587.6 1092.4Z" fill="#FDEAEA" fill-rule="evenodd"/><path d="M2381.78 1091.68 2401.68 1071.78 2608.22 1071.78 2608.22 1100.32 2588.32 1120.22 2381.78 1120.22ZM2385.22 1118.5 2383.5 1116.78 2587.6 1116.78 2586.39 1117.28 2605.28 1098.39 2604.78 1099.6 2604.78 1073.5 2606.5 1075.22 2402.4 1075.22 2403.61 1074.72 2384.72 1093.61 2385.22 1092.4ZM2383.5 1090.68 2587.6 1090.68 2586.39 1091.18 2605.28 1072.28 2607.72 1074.72 2588.32 1094.12 2383.5 1094.12ZM2589.32 1092.4 2589.32 1118.5 2585.88 1118.5 2585.88 1092.4Z" fill="#3B3838"/><text font-family="Times New Roman,Times New Roman_MSFontService,sans-serif" font-weight="400" font-size="55" transform="matrix(1 0 0 1 2280.19 1192)">Semantic embedding</text><path d="M2626 1091.25 2747.44 1091.25 2747.44 1096.75 2626 1096.75ZM2742.85 1080.25 2770.35 1094 2742.85 1107.75Z" fill="#3B3838"/><path d="M1422 1017.5 1438.75 1017.5 1438.75 953 1472.25 953 1472.25 1017.5 1489 1017.5 1455.5 1051Z" fill="url(#fill0)" fill-rule="evenodd"/><rect x="906.5" y="713.5" width="35.0001" height="41.9999" stroke="#767171" stroke-width="6.875" stroke-miterlimit="8" fill="#AFABAB"/><rect x="979.5" y="796.5" width="35.0001" height="40.9999" stroke="#767171" stroke-width="6.875" stroke-miterlimit="8" fill="#AFABAB"/><rect x="835.5" y="800.5" width="34.9997" height="41.9999" stroke="#767171" stroke-width="6.875" stroke-miterlimit="8" fill="#AFABAB"/><rect x="2400.5" y="706.5" width="35" height="41.0002" stroke="#767171" stroke-width="6.875" stroke-miterlimit="8" fill="#AFABAB"/><rect x="2525.5" y="704.5" width="36" height="41.0002" stroke="#767171" stroke-width="6.875" stroke-miterlimit="8" fill="#AFABAB"/><rect x="2467.5" y="790.5" width="35" height="40.9999" stroke="#767171" stroke-width="6.875" stroke-miterlimit="8" fill="#AFABAB"/><path d="M2184.5 663.5 2184.5 1573.01" stroke="#A5A5A5" stroke-width="6.875" stroke-miterlimit="8" stroke-dasharray="27.5 20.625" fill="none" fill-rule="evenodd"/><text fill="#1F4E79" font-family="Calibri,Calibri_MSFontService,sans-serif" font-weight="700" font-size="64" transform="matrix(1 0 0 1 717.904 577)">Base &amp; Incremental learning separately</text><text fill="#1F4E79" font-family="Calibri,Calibri_MSFontService,sans-serif" font-weight="700" font-size="64" transform="matrix(1 0 0 1 2235.23 578)">Unified learning</text></g></svg>